<svg xmlns="http://www.w3.org/2000/svg" viewBox="0 0 402.5454545454545 371" preserveAspectRatio="xMidYMid meet" class="css-18azjue" id="dcebafbb"><defs id="SvgjsDefs1603"/><g id="SvgjsG1604" featurekey="symbolContainer" transform="matrix(1,0,0,1,0,0)" fill="#111111">    <path xmlns="http://www.w3.org/2000/svg" fill-rule="nonzero" d="             M0,0             H128             V371             H0,0             z             M4,4             v363             h120             v-363             z     "/></g><g id="SvgjsG1605" featurekey="monogramFeature-0" transform="matrix(8.15850829150918,0,0,8.15850829150918,-16.307693145598748,-132.85314924716525)" fill="#111111"><path d="M3.96 60 l0 -42 l11.7 0 l0 42 l-11.7 0 z"/></g><g id="SvgjsG1606" featurekey="nameFeature-0" transform="matrix(1.4553554376089186,0,0,1.4553554376089186,142.20128209196432,130.88824111798664)" fill="#111111"><path d="M3.9844 40 l0 -27.852 l4.668 0 l0 27.852 l-4.668 0 z M35.488718750000004 12.148 l4.668 0 l0 27.852 l-5.2344 0 l-13.672 -21.25 l0 21.25 l-4.6289 0 l0 -27.852 l5.1758 0 l13.691 21.113 l0 -21.113 z M58.51565 40 l0 -27.852 l9.5313 0 c8.7109 0 13.086 5.6641 13.086 13.906 c0 8.2617 -4.375 13.945 -13.086 13.945 l-9.5313 0 z M63.18355 35.8203 l4.668 0 c5.7031 0 8.3789 -3.6914 8.3789 -9.7656 c0 -6.0352 -2.6758 -9.7461 -8.3789 -9.7461 l-4.668 0 l0 19.512 z M102.18778125 40 l-7.2266 -12.422 l-3.0078 0 l0 12.422 l-4.668 0 l0 -27.852 l9.668 0 c6.0352 0 8.6914 3.6133 8.6914 8.0859 c0 3.8867 -2.3047 6.5039 -5.9961 7.168 l8.0273 12.598 l-5.4883 0 z M91.95308125 16.094 l0 8.0273 l4.3164 0 c3.418 0 4.8828 -1.6016 4.8828 -3.9844 c0 -2.3633 -1.4648 -4.043 -4.8828 -4.043 l-4.3164 0 z M128.359125 16.309 l-10.82 0 l0 7.7148 l9.5703 0 l0 4.1211 l-9.5703 0 l0 7.6758 l10.82 0 l0 4.1797 l-15.547 0 l0 -27.852 l15.547 0 l0 4.1602 z M143.6721875 40.37109 c-5.8984 0 -10.313 -2.8125 -11.211 -7.7344 l4.8047 -1.1133 c0.50781 3.2031 3.1445 4.9609 6.582 4.9609 c2.7148 0 5.1758 -1.1523 5.1367 -4.082 c-0.039063 -3.0469 -3.418 -3.9258 -7.0703 -4.9609 c-4.2188 -1.2305 -8.5547 -2.6367 -8.5547 -7.7539 c0 -5.1953 4.2578 -7.9297 9.5508 -7.9297 c4.8828 0 9.5117 2.0508 10.586 7.0508 l-4.5117 1.1328 c-0.625 -2.9688 -2.9297 -4.2773 -5.8398 -4.2773 c-2.5977 0 -5.0586 1.1133 -5.0586 3.9453 c0 2.5781 2.9492 3.3789 6.3281 4.3164 c4.3555 1.2109 9.3945 2.6953 9.3945 8.2813 c0 5.7617 -4.8242 8.1641 -10.137 8.1641 z M168.7503125 40.37109 c-5.8984 0 -10.313 -2.8125 -11.211 -7.7344 l4.8047 -1.1133 c0.50781 3.2031 3.1445 4.9609 6.582 4.9609 c2.7148 0 5.1758 -1.1523 5.1367 -4.082 c-0.039063 -3.0469 -3.418 -3.9258 -7.0703 -4.9609 c-4.2188 -1.2305 -8.5547 -2.6367 -8.5547 -7.7539 c0 -5.1953 4.2578 -7.9297 9.5508 -7.9297 c4.8828 0 9.5117 2.0508 10.586 7.0508 l-4.5117 1.1328 c-0.625 -2.9688 -2.9297 -4.2773 -5.8398 -4.2773 c-2.5977 0 -5.0586 1.1133 -5.0586 3.9453 c0 2.5781 2.9492 3.3789 6.3281 4.3164 c4.3555 1.2109 9.3945 2.6953 9.3945 8.2813 c0 5.7617 -4.8242 8.1641 -10.137 8.1641 z"/></g><g id="SvgjsG1607" featurekey="sloganFeature-0" transform="matrix(1.2313240803758219,0,0,1.2313240803758219,145.41421954863898,198.5724885587803)" fill="#111111"><path d="M3.46 20 l-1.36 0 l0 -14.4 l1.36 0 l0 14.4 z M16.82 20 l-8.28 -12.56 l-0.04 0 l0 12.56 l-1.36 0 l0 -14.4 l1.54 0 l8.32 12.58 l0.04 0 l0 -12.58 l1.36 0 l0 14.4 l-1.58 0 z M26.54 20 l-4.92 0 l0 -14.4 l4.92 0 c1.6 0 3.1 0.1 4.44 1.08 c1.9 1.38 2.4 4.18 2.4 6.1 c0 1.9 -0.42 4.02 -1.74 5.46 c-1.32 1.48 -3.2 1.76 -5.1 1.76 z M22.98 6.76 l0 12.08 l3.26 0 c1.22 0 2.28 -0.08 3.38 -0.66 c1.92 -0.98 2.4 -3.44 2.4 -5.4 c0 -2.1 -0.46 -4.4 -2.48 -5.48 c-0.86 -0.46 -2.1 -0.54 -3.3 -0.54 l-3.26 0 z M37.9 20 l-1.36 0 l0 -14.4 l1.36 0 l0 14.4 z M41.7 20 l-1.4 0 l5.66 -14.4 l1.54 0 l5.52 14.4 l-1.4 0 l-1.66 -4.52 l-6.56 0 z M46.68 6.76 l-2.82 7.56 l5.64 0 z M55.040000000000006 10.12 l0 -4.52 l1.04 0 l0 4.52 l-1.04 0 z M58.64 15.7 l1.32 0 c0.22 2.58 1.94 3.52 4.14 3.52 c2.58 0 3.66 -1.4 3.66 -2.98 c0 -4.46 -8.78 -1.5 -8.78 -7.16 c0 -2 1.66 -3.86 4.88 -3.86 c3.24 0 4.86 1.96 4.84 4.3 l-1.3 0 c0 -2.2 -1.7 -3.14 -3.54 -3.14 c-2.76 0 -3.76 1.7 -3.52 3.18 c0.62 3.72 8.78 1.04 8.78 6.62 c0 2.64 -1.94 4.2 -5.26 4.2 c-3 0 -5.22 -1.56 -5.22 -4.68 z M79.02 20 l-1.36 0 l0 -14.4 l1.36 0 l0 14.4 z M92.38000000000001 20 l-8.28 -12.56 l-0.04 0 l0 12.56 l-1.36 0 l0 -14.4 l1.54 0 l8.32 12.58 l0.04 0 l0 -12.58 l1.36 0 l0 14.4 l-1.58 0 z M95.88 6.76 l0 -1.16 l10.48 0 l0 1.16 l-4.56 0 l0 13.24 l-1.36 0 l0 -13.24 l-4.56 0 z M118.08000000000001 20 l-9.78 0 l0 -14.4 l9.58 0 l0 1.16 l-8.22 0 l0 5.2 l7.42 0 l0 1.16 l-7.42 0 l0 5.72 l8.42 0 l0 1.16 z M121.86 12.3 l4.24 0 c2.02 0 3.58 -0.84 3.58 -2.86 c0 -2.16 -1.68 -2.68 -3.5 -2.68 l-4.32 0 l0 5.54 z M126.14 13.46 l-4.28 0 l0 6.54 l-1.36 0 l0 -14.4 l5.64 0 c3.16 0 4.9 1.12 4.9 3.78 c0 1.82 -0.68 2.78 -2.34 3.52 c1.7 0.58 1.8 2.38 1.84 3.9 c0.06 2.18 0.24 2.78 0.6 3.06 l0 0.14 l-1.5 0 c-0.56 -0.98 -0.42 -3.68 -0.64 -4.78 c-0.32 -1.56 -1.5 -1.76 -2.86 -1.76 z M143.64000000000001 20 l-9.78 0 l0 -14.4 l9.58 0 l0 1.16 l-8.22 0 l0 5.2 l7.42 0 l0 1.16 l-7.42 0 l0 5.72 l8.42 0 l0 1.16 z M145.32000000000002 15.7 l1.32 0 c0.22 2.58 1.94 3.52 4.14 3.52 c2.58 0 3.66 -1.4 3.66 -2.98 c0 -4.46 -8.78 -1.5 -8.78 -7.16 c0 -2 1.66 -3.86 4.88 -3.86 c3.24 0 4.86 1.96 4.84 4.3 l-1.3 0 c0 -2.2 -1.7 -3.14 -3.54 -3.14 c-2.76 0 -3.76 1.7 -3.52 3.18 c0.62 3.72 8.78 1.04 8.78 6.62 c0 2.64 -1.94 4.2 -5.26 4.2 c-3 0 -5.22 -1.56 -5.22 -4.68 z M157 6.76 l0 -1.16 l10.48 0 l0 1.16 l-4.56 0 l0 13.24 l-1.36 0 l0 -13.24 l-4.56 0 z"/></g></svg>